HIERARCHY
ROOT Hips
{
	OFFSET	0	0	0
	CHANNELS 6  Xposition Yposition Zposition Xrotation Yrotation Zrotation
	JOINT Spine
	{
		OFFSET	0	7.09727	1.42491
		CHANNELS 3  Xrotation Yrotation Zrotation
		JOINT Spine1
		{
			OFFSET	0	12.1515	-2.16991
			CHANNELS 3  Xrotation Yrotation Zrotation
			JOINT Spine2
			{
				OFFSET	0	9.21125	0.987307
				CHANNELS 3  Xrotation Yrotation Zrotation
				JOINT Spine3
				{
					OFFSET	0	11.0231	3.27656
					CHANNELS 3  Xrotation Yrotation Zrotation
					JOINT Spine4
					{
						OFFSET	0	16.3177	-1.67083
						CHANNELS 3  Xrotation Yrotation Zrotation
						JOINT Neck
						{
							OFFSET	0	7.78996	-5.45731
							CHANNELS 3  Xrotation Yrotation Zrotation
							JOINT Head
							{
								OFFSET	0	9.35229	-2.79918
								CHANNELS 3  Xrotation Yrotation Zrotation
								End Site
								{
									OFFSET	0	19.5075	-0.943909
								}
							}
						}
					}
					JOINT LeftShoulder
					{
						OFFSET	-4.687	19.8329	-9.3523
						CHANNELS 3  Xrotation Yrotation Zrotation
						JOINT LeftArm
						{
							OFFSET	-10.2164	-2.79918	3.59122
							CHANNELS 3  Xrotation Yrotation Zrotation
							JOINT LeftForeArm
							{
								OFFSET	-30.9138	-1.41096	2.20659
								CHANNELS 3  Xrotation Yrotation Zrotation
								JOINT LeftHand
								{
									OFFSET	-25.9068	-1.7903	1.8492
									CHANNELS 3  Xrotation Yrotation Zrotation
									End Site
									{
										OFFSET	-9.45469	-0.653372	0.674821
									}
								}
							}
						}
					}
					JOINT RightShoulder
					{
						OFFSET	4.687	19.8329	-9.3523
						CHANNELS 3  Xrotation Yrotation Zrotation
						JOINT RightArm
						{
							OFFSET	10.2164	-2.79918	3.59122
							CHANNELS 3  Xrotation Yrotation Zrotation
							JOINT RightForeArm
							{
								OFFSET	30.9138	-1.41096	2.20659
								CHANNELS 3  Xrotation Yrotation Zrotation
								JOINT RightHand
								{
									OFFSET	25.9068	-1.7903	1.8492
									CHANNELS 3  Xrotation Yrotation Zrotation
									End Site
									{
										OFFSET	9.45469	-0.653372	0.674821
									}
								}
							}
						}
					}
				}
			}
		}
	}
	JOINT LeftUpLeg
	{
		OFFSET	-9.67573	-3.54864	-0.712453
		CHANNELS 3  Xrotation Yrotation Zrotation
		JOINT LeftLeg
		{
			OFFSET	-2.14499	-42.0303	-0.657025
			CHANNELS 3  Xrotation Yrotation Zrotation
			JOINT LeftFoot
			{
				OFFSET	-2.09953	-38.701	3.32829
				CHANNELS 3  Xrotation Yrotation Zrotation
				JOINT LeftToeBase
				{
					OFFSET	0	-4.7778	-12.6898
					CHANNELS 3  Xrotation Yrotation Zrotation
					End Site
					{
						OFFSET	0	-1.91111	-7.64447
					}
				}
			}
		}
	}
	JOINT RightUpLeg
	{
		OFFSET	9.67573	-3.54864	-0.712453
		CHANNELS 3  Xrotation Yrotation Zrotation
		JOINT RightLeg
		{
			OFFSET	2.14499	-42.0303	-0.657025
			CHANNELS 3  Xrotation Yrotation Zrotation
			JOINT RightFoot
			{
				OFFSET	2.09953	-38.701	3.32829
				CHANNELS 3  Xrotation Yrotation Zrotation
				JOINT RightToeBase
				{
					OFFSET	0	-4.7778	-12.6898
					CHANNELS 3  Xrotation Yrotation Zrotation
					End Site
					{
						OFFSET	0	-1.91111	-7.64447
					}
				}
			}
		}
	}
}
MOTION
Frames: 18
Frame Time: 0.020408
 0 -10.1591 2.86036 -0 0 -0 -0 0 -0 -0 0 -0 -0 0 -0 -0 0 -0 -0 0 -0 -0 0 -0 -0 0 -0 -0 0 -0 -0 0 -0 -0 0 -0 -0 0 -0 -0 0 -0 -0 0 -0 -0 0 -0 -0 0 -0 -0 0 -0 -0 0 -0 -0 0 -0 -0 0 -0 -0 0 -0 -0 0 -0 -0 0 -0 -0 0 -0
 94.6992 43.5173 78.2539 83.0028 -177.413 -175.751 179.998 -179.825 179.402 13.1074 -0.349155 -0.996618 13.12 -1.04747 -0.996766 8.81465 -0.174595 -0.597962 4.19816 -0.0145915 -0.198785 1.45981 -21.0336 1.81399 179.813 -142.309 177.452 168.141 175.05 157.254 58.21 -46.0894 55.0767 48.114 -14.5148 16.0035 -0 -0.257474 -88.5881 173.501 -172.796 -168.233 9.50664 86.212 -2.19855 44.7305 3.70211 -4.17734 -0 43.1475 45.9582 31.5866 23.1458 -4.65951 175.791 -176.192 -172.086 44.8689 34.6098 17.4919 156.823 180 -180 38.0205 30.6016 -17.5294 162.894 167.721 -156.711 4.30823 57.7869 53.7958 148.086 180 -180
 94.7424 43.444 78.2066 82.8992 -177.35 -175.568 179.999 -179.87 179.367 13.3101 -0.260083 -1.05496 13.359 -0.780248 -1.05504 9.05059 -0.130055 -0.632969 4.02897 -0.0148243 -0.210468 0.763413 -21.1532 1.64825 179.556 -142.055 177.298 168.233 176.225 157.162 57.271 -45.9151 54.9178 48.1433 -14.4528 15.7447 -0 -0.194826 -88.2811 173.302 -173.056 -167.826 11.5429 85.5728 -4.59062 45.0152 3.18134 -4.13368 -0 43.1731 45.6598 31.8613 23.063 -5.24112 175.587 -176.828 -171.272 44.2465 35.7 18.1102 156.774 180 -180 38.3054 31.4652 -17.8722 163.006 167.821 -156.949 3.11137 57.195 54.6622 148.066 180 -180
 94.6968 43.4527 78.089 82.6968 -177.845 -175.557 179.998 -179.83 179.379 13.2997 -0.339891 -1.03484 13.3109 -1.01967 -1.03499 8.93901 -0.169963 -0.620898 4.27125 -0.0154145 -0.20639 1.49648 -21.1158 1.75631 179.822 -142.238 177.431 168.257 175.624 157.357 57.6778 -46.102 54.9085 48.239 -14.8158 16.2266 -0 -0.203174 -88.3091 173.26 -172.014 -167.902 19.6479 86.2266 -11.879 45.4134 3.15561 -4.25238 -0 43.4332 45.5888 32.7362 25.8122 -5.31824 174.853 -176.149 -170.837 41.0235 39.1635 21.2267 156.668 180 -180 37.5358 29.7373 -17.18 163.753 167.309 -156.525 3.85997 58.1972 53.6758 148.067 180 -180
 94.5531 43.1595 78.1183 83.0969 -177.443 -175.857 179.998 -179.793 179.402 13.1312 -0.414306 -0.996081 13.1423 -1.24292 -0.996289 8.83317 -0.207173 -0.597637 4.20124 -0.0145942 -0.198676 1.40123 -20.814 1.78683 179.808 -142.7 177.477 168.178 174.68 157.424 57.2218 -46.4952 54.0246 48.3765 -15.0538 16.471 -0 -0.218302 -88.1605 173.287 -173.207 -167.775 25.3602 85.7932 -17.3067 45.8144 2.80054 -4.17807 -0 43.6737 45.5332 31.6166 25.5296 -4.81155 175.393 -175.784 -171.349 42.9513 37.1019 19.6655 156.702 180 -180 36.9223 28.7874 -16.7407 163.998 168.177 -156.787 7.16524 59.6785 51.6279 148.14 180 -180
 94.5437 42.9809 78.0838 82.8901 -177.769 -175.789 179.998 -179.771 179.406 13.2177 -0.457187 -0.989284 13.2293 -1.37156 -0.989536 8.89699 -0.228615 -0.593556 4.21644 -0.0145469 -0.197315 1.26508 -20.2286 1.9097 179.796 -143.547 177.584 168.172 174.436 157.473 57.7181 -46.2294 54.1305 48.2848 -15.6849 17.2092 -0 -0.351576 -88.2977 173.129 -172.287 -167.617 34.1959 86.2022 -25.8898 46.1157 2.80622 -4.20597 -0 44.441 45.7596 31.7016 24.9315 -4.85037 175.302 -176.519 -170.816 42.3821 38.076 20.2243 156.664 180 -180 37.1043 29.0846 -16.8852 164.165 169.466 -156.579 7.63366 60.3069 51.2533 148.161 180 -180
 94.2951 43.0075 78.0543 82.777 -178.809 -176.348 179.998 -179.69 179.589 13.2338 -0.620368 -0.684593 13.2344 -1.8611 -0.684915 8.87156 -0.310198 -0.410738 4.30575 -0.0102791 -0.136524 1.44943 -19.7756 2.0866 179.886 -144.199 177.721 168.098 174.591 157.277 57.5744 -45.9308 54.1394 48.2822 -16.2188 17.2938 -0 -0.419571 -88.6497 173.018 -172.321 -167.406 42.0863 85.7308 -33.7297 46.4263 2.66879 -4.22512 -0 45.2664 46.1846 31.6347 26.6621 -3.87011 175.062 -176.714 -170.08 38.6745 41.3448 23.2346 156.586 180 -180 36.6482 28.846 -15.255 164.317 170.973 -157.202 9.8702 60.9767 49.8067 148.219 180 -180
 94.3469 42.8966 78.0509 82.9181 -178.508 -176.112 179.998 -179.751 179.519 13.1435 -0.497032 -0.801093 13.1126 -1.4911 -0.801334 8.71366 -0.248532 -0.480642 4.50306 -0.0125787 -0.159718 2.17126 -20.1079 1.94773 0.126609 -36.0143 -2.26616 168.068 174.361 157.275 58.1926 -46.5144 54.3106 48.2585 -16.0167 17.3273 -0 -0.407373 -88.6879 173.328 -171.166 -168.154 49.7658 85.538 -41.4701 46.8564 2.77363 -4.30017 -0 46.4521 46.9527 31.5671 25.2103 -4.37276 174.897 -177.207 -169.906 40.2985 40.6746 21.9534 156.599 180 -180 36.6895 28.6287 -15.7281 164.465 171.345 -157.108 10.3146 61.5545 49.4371 148.275 180 -180
 94.2597 42.8911 77.9582 82.8285 -179.1 -176.604 179.999 -179.753 179.699 13.1973 -0.493555 -0.500969 13.1821 -1.48066 -0.501117 8.77999 -0.246783 -0.300573 4.4467 -0.0077679 -0.0998884 1.99763 -20.6297 1.40687 0.0491111 -36.3894 -2.48164 168.068 175.002 157.111 57.8282 -46.2787 54.066 48.3183 -16.1877 17.7114 -0 -0.424676 -88.7287 173.905 -170.202 -169.338 53.5392 85.7664 -45.9442 46.7134 3.17526 -4.73813 -0 47.2174 47.4807 31.3229 25.4954 -3.75587 174.93 -178 -169.141 37.8943 43.0597 23.7042 156.553 180 -180 36.3655 28.6835 -14.7887 164.577 172.152 -157.318 11.2318 61.923 48.8297 148.286 180 -180
 94.2094 42.8837 77.9593 83.4046 -178.996 -176.673 179.999 -179.802 179.714 12.8385 -0.395334 -0.476897 12.8105 -1.186 -0.476987 8.49586 -0.197671 -0.286133 4.43082 -0.00736839 -0.095092 2.41898 -21.4265 1.07036 0.161596 -37.2618 -2.62275 168.045 175.33 156.98 58.0231 -46.3829 53.9819 48.3861 -16.3455 17.4196 -0 -0.51497 -88.6999 174.431 -169.599 -170.354 48.6649 86.063 -41.1499 46.3187 3.81821 -5.33627 -0 47.2959 47.85 30.7975 25.5312 -3.79199 174.693 -178.336 -169.092 37.8089 42.9913 24.0087 156.534 180 -180 35.8007 28.3071 -14.5512 165.224 173.86 -157.582 14.4569 63.493 46.1435 148.439 180 -180
 93.9418 42.79 78.1461 83.0725 -178.488 -176.878 179.999 -179.78 179.656 13.0969 -0.439496 -0.572749 13.0952 -1.31849 -0.572883 8.75423 -0.219755 -0.343642 4.31722 -0.00862288 -0.114221 1.80323 -21.3433 0.995945 179.946 -142.747 177.291 167.929 174.824 156.865 57.2744 -46.1732 53.5374 48.3924 -16.3787 17.9471 -0 -0.571625 -88.9122 175 -170.412 -171.262 41.1328 86.5778 -34.1487 45.8367 4.10305 -5.66474 -0 46.8044 48.0542 30.3409 24.1453 -2.56604 175.54 -177.716 -171.352 42.3406 37.2808 20.2389 156.358 180 -180 35.9566 27.004 -13.2785 166.331 175.459 -159.289 22.2207 65.0701 39.7651 148.458 180 -180
 94.1015 42.7916 77.9363 83.3608 -179.834 -177.019 179.999 -179.73 179.841 12.9875 -0.540789 -0.264954 13.0119 -1.62237 -0.265049 8.74742 -0.270397 -0.158967 4.12424 -0.0038109 -0.0528512 1.45038 -21.99 0.882562 179.775 -141.618 177.105 168.08 176.026 156.885 57.1647 -46.098 53.7694 48.2576 -15.9978 17.4172 -0 -0.640534 -88.7681 175.222 -169.794 -171.723 24.9866 86.8234 -18.5975 45.3744 4.53529 -6.16676 -0 45.903 48.4033 30.2693 25.8298 -2.79261 174.978 -178.141 -169.212 37.1025 42.5743 24.4233 156.517 180 -180 34.99 27.5028 -13.348 166.505 176.344 -157.662 20.8156 64.5229 40.4926 148.825 180 -180
 93.927 42.9004 78.1046 83.2898 -178.709 -177.332 179.999 -179.757 179.808 12.9822 -0.48543 -0.319645 13.0033 -1.45629 -0.319737 8.73526 -0.242717 -0.191782 4.14283 -0.00461827 -0.0637597 1.47292 -21.8368 0.798364 179.798 -141.982 177.12 167.819 174.682 156.669 57.68 -46.0335 54.1072 48.3988 -16.2185 17.6428 -0 -0.627551 -89.0246 175.362 -171.057 -171.834 179.93 93.3694 -173.375 44.7395 4.63462 -6.10685 -0 44.9025 47.8273 29.9693 24.4107 -2.21289 175.551 -178.056 -170.594 40.8825 39.6184 21.2133 156.599 180 -180 36.0153 28.5236 -13.3184 166.435 178.202 -158.844 23.0425 66.0199 39.0071 148.813 180 -180
 93.9855 42.952 77.9202 83.2028 179.828 -177.327 180 -179.64 179.928 13.0462 -0.719988 -0.119266 13.0922 -2.15996 -0.119342 8.84502 -0.359995 -0.0715555 4.00617 -0.00166635 -0.0237931 1.01832 -21.8062 0.984072 179.626 -141.682 177.093 168.001 175.41 156.869 56.7593 -45.9516 53.807 48.3227 -16.2563 17.7399 -0 -0.638498 -89.0883 175.435 -171.301 -171.94 159.929 94.1157 -153.487 43.8662 4.64707 -6.08853 -0 44.1226 46.9622 30.4858 27.6352 -2.41618 174.84 -177.443 -169.01 35.3042 43.2455 25.7909 156.484 180 -180 34.8546 26.787 -12.4246 167.613 178.442 -158.082 25.0281 66.3917 36.6828 148.923 180 -180
 94.1043 42.7607 78.1927 83.6389 -179.649 -177.202 179.999 -179.682 179.891 12.8985 -0.635152 -0.181977 12.9552 -1.90546 -0.182067 8.78178 -0.317577 -0.109181 3.87544 -0.00245973 -0.03631 0.784538 -21.8149 1.05911 179.535 -141.51 177.07 167.927 175.504 156.688 56.5072 -45.8356 53.6502 48.2618 -16.3985 17.8713 -0 -0.597831 -89.0934 175.416 -172.017 -171.833 150.692 95.6441 -144.018 43.144 4.58841 -6.08454 -0 43.4109 46.1506 29.5106 24.0577 -2.13252 175.558 -176.939 -170.528 42.0003 37.7865 20.2628 156.629 180 -180 34.7689 24.7256 -12.7033 167.567 179.141 -158.297 31.1086 67.3762 31.8651 149.127 180 -180
 93.9176 42.6565 78.4331 83.1297 -177.776 -177.752 180 -179.864 179.883 13.0348 -0.272504 -0.194212 13.109 -0.817512 -0.19423 8.91838 -0.136252 -0.116526 3.81286 -0.00258291 -0.038756 0.370597 -21.3594 0.952385 179.424 -142.281 177.074 167.584 174.566 156.203 56.5731 -46.0384 53.0424 48.0937 -17.8853 18.8005 -0 -0.481432 -88.9648 175.057 -171.857 -171.201 146.889 97.3666 -139.248 42.7071 5.72167 -6.67709 -0 42.8546 45.3465 29.5175 23.4781 -1.47925 176.039 -175.732 -172.759 46.8614 31.9753 16.2272 156.71 180 -180 36.3597 27.8437 -13.4155 167.296 -179.11 -158.873 32.8875 67.0267 30.3126 149.222 180 -180
 93.7653 42.4101 78.5906 83.2018 -178.638 -177.815 180 -179.817 179.996 12.9092 -0.366046 -0.00747758 13.0265 -1.09814 -0.00747879 8.95858 -0.183023 -0.00448648 3.48066 -9.07935e-05 -0.00149273 179.492 -158.626 -179.253 179.108 -142.173 176.905 167.749 175.532 156.302 54.793 -46.1021 50.6517 47.0499 -18.766 19.5427 -0 -0.270695 -88.3303 174.897 -172.161 -170.877 147.535 99.9258 -139.743 41.8208 6.60575 -7.05564 -0 42.4592 44.519 29.0024 22.2705 -0.537608 176.097 -175.344 -173.494 48.1784 29.7686 15.2862 156.7 180 -180 35.6006 26.9133 -12.4754 167.799 -177.88 -159.323 36.9959 66.3064 27.0574 149.364 180 -180
 94.5966 43.4448 80.6721 78.5863 -177.991 -179.11 0.000816916 -0.074719 0.6264 14.2449 -0.149422 1.044 14.3474 -0.448266 1.04403 9.78696 -0.074719 0.6264 4.06744 0.0148103 0.208274 179.884 -157.112 177.955 179.266 -142.442 176.179 168.891 177.012 158.373 53.5661 -46.3643 43.5767 45.6813 -23.9737 19.2775 -0 -0.0062932 -86.6482 177.177 -170.791 -175.066 152.553 102.192 -143.854 40.7096 11.0987 -6.26307 -0 42.698 43.9594 35.5415 16.5758 0.302787 174.38 -171.576 -179.643 60.6001 4.26859 6.4914 149.106 180 -180 40.4351 19.1648 -7.44052 169.027 -173.416 -174.987 65.9793 9.56882 4.42346 143.116 180 -180
